name ./resultDataOpenSim/trcMotMarkerGrf/sub06/grf-01-01.mot
datacolumns 19
datarows 25
range 0.00000000 0.09600000
endheader

                time	     ground_force_vx	     ground_force_vy	     ground_force_vz	     ground_force_px	     ground_force_py	     ground_force_pz	   l_ground_force_vx	   l_ground_force_vy	   l_ground_force_vz	   l_ground_force_px	   l_ground_force_py	   l_ground_force_pz	     ground_torque_x	     ground_torque_y	     ground_torque_z	   l_ground_torque_x	   l_ground_torque_y	   l_ground_torque_z	
          0.00000000	          0.00000000	          0.00000000	          0.00000000	          0.00000000	          0.00000000	          0.00000000	          0.00000000	          0.00000000	          0.00000000	          0.00000000	          0.00000000	          0.00000000	          0.00000000	          0.00000000	          0.00000000	          0.00000000	          0.00000000	          0.00000000	
          0.00400000	          0.00000000	          0.00000000	          0.00000000	          0.00000000	          0.00000000	          0.00000000	          0.00000000	          0.00000000	          0.00000000	          0.00000000	          0.00000000	          0.00000000	          0.00000000	          0.00000000	          0.00000000	          0.00000000	          0.00000000	          0.00000000	
          0.00800000	          0.00000000	          0.00000000	          0.00000000	          0.00000000	          0.00000000	          0.00000000	          0.00000000	          0.00000000	          0.00000000	          0.00000000	          0.00000000	          0.00000000	          0.00000000	          0.00000000	          0.00000000	          0.00000000	          0.00000000	          0.00000000	
          0.01200000	          0.00000000	          0.00000000	          0.00000000	          0.00000000	          0.00000000	          0.00000000	          0.00000000	          0.00000000	          0.00000000	          0.00000000	          0.00000000	          0.00000000	          0.00000000	          0.00000000	          0.00000000	          0.00000000	          0.00000000	          0.00000000	
          0.01600000	          0.00000000	          0.00000000	          0.00000000	          0.00000000	          0.00000000	          0.00000000	          0.00000000	          0.00000000	          0.00000000	          0.00000000	          0.00000000	          0.00000000	          0.00000000	          0.00000000	          0.00000000	          0.00000000	          0.00000000	          0.00000000	
          0.02000000	          0.00000000	          0.00000000	          0.00000000	          0.00000000	          0.00000000	          0.00000000	          0.00000000	          0.00000000	          0.00000000	          0.00000000	          0.00000000	          0.00000000	          0.00000000	          0.00000000	          0.00000000	          0.00000000	          0.00000000	          0.00000000	
          0.02400000	          0.00000000	          0.00000000	          0.00000000	          0.00000000	          0.00000000	          0.00000000	          0.00000000	          0.00000000	          0.00000000	          0.00000000	          0.00000000	          0.00000000	          0.00000000	          0.00000000	          0.00000000	          0.00000000	          0.00000000	          0.00000000	
          0.02800000	          0.00000000	          0.00000000	          0.00000000	          0.00000000	          0.00000000	          0.00000000	          0.00000000	          0.00000000	          0.00000000	          0.00000000	          0.00000000	          0.00000000	          0.00000000	          0.00000000	          0.00000000	          0.00000000	          0.00000000	          0.00000000	
          0.03200000	          0.00000000	          0.00000000	          0.00000000	          0.00000000	          0.00000000	          0.00000000	          0.00000000	          0.00000000	          0.00000000	          0.00000000	          0.00000000	          0.00000000	          0.00000000	          0.00000000	          0.00000000	          0.00000000	          0.00000000	          0.00000000	
          0.03600000	          0.00000000	          0.00000000	          0.00000000	          0.00000000	          0.00000000	          0.00000000	          0.00000000	          0.00000000	          0.00000000	          0.00000000	          0.00000000	          0.00000000	          0.00000000	          0.00000000	          0.00000000	          0.00000000	          0.00000000	          0.00000000	
          0.04000000	          0.00000000	          0.00000000	          0.00000000	          0.00000000	          0.00000000	          0.00000000	          0.00000000	          0.00000000	          0.00000000	          0.00000000	          0.00000000	          0.00000000	          0.00000000	          0.00000000	          0.00000000	          0.00000000	          0.00000000	          0.00000000	
          0.04400000	         -2.85581255	         60.48181842	          6.10782632	         -0.98034680	          0.00000000	          0.04640944	          0.00000000	          0.00000000	          0.00000000	          0.00000000	          0.00000000	          0.00000000	          0.00000000	         -0.37398476	          0.00000000	          0.00000000	          0.00000000	          0.00000000	
          0.04800000	         -7.79810412	        162.57397355	         13.97039153	         -0.97755161	          0.00000000	          0.04516899	          0.00000000	          0.00000000	          0.00000000	          0.00000000	          0.00000000	          0.00000000	          0.00000000	         -0.50264704	          0.00000000	          0.00000000	          0.00000000	          0.00000000	
          0.05200000	        -14.13459185	        253.26795412	         21.44912462	         -0.97508704	          0.00000000	          0.04408144	          0.00000000	          0.00000000	          0.00000000	          0.00000000	          0.00000000	          0.00000000	          0.00000000	         -0.62234210	          0.00000000	          0.00000000	          0.00000000	          0.00000000	
          0.05600000	        -22.99900587	        324.52473067	         27.88422395	         -0.97249788	          0.00000000	          0.04337539	          0.00000000	          0.00000000	          0.00000000	          0.00000000	          0.00000000	          0.00000000	          0.00000000	         -0.72609867	          0.00000000	          0.00000000	          0.00000000	          0.00000000	
          0.06000000	        -34.91385677	        374.84618581	         32.47501498	         -0.96947723	          0.00000000	          0.04325547	          0.00000000	          0.00000000	          0.00000000	          0.00000000	          0.00000000	          0.00000000	          0.00000000	         -0.80797618	          0.00000000	          0.00000000	          0.00000000	          0.00000000	
          0.06400000	        -49.32460568	        408.53930545	         34.62061867	         -0.96599773	          0.00000000	          0.04363551	          0.00000000	          0.00000000	          0.00000000	          0.00000000	          0.00000000	          0.00000000	          0.00000000	         -0.86494479	          0.00000000	          0.00000000	          0.00000000	          0.00000000	
          0.06800000	        -64.71423389	        432.02409450	         34.13573298	         -0.96245600	          0.00000000	          0.04423750	          0.00000000	          0.00000000	          0.00000000	          0.00000000	          0.00000000	          0.00000000	          0.00000000	         -0.89883408	          0.00000000	          0.00000000	          0.00000000	          0.00000000	
          0.07200000	        -79.32655590	        450.18190587	         31.18006141	         -0.95930579	          0.00000000	          0.04491559	          0.00000000	          0.00000000	          0.00000000	          0.00000000	          0.00000000	          0.00000000	          0.00000000	         -0.91786446	          0.00000000	          0.00000000	          0.00000000	          0.00000000	
          0.07600000	        -91.78863205	        465.51155128	         26.10751456	         -0.95656780	          0.00000000	          0.04577206	          0.00000000	          0.00000000	          0.00000000	          0.00000000	          0.00000000	          0.00000000	          0.00000000	         -0.93755444	          0.00000000	          0.00000000	          0.00000000	          0.00000000	
          0.08000000	       -101.15507237	        479.76037862	         19.39477572	         -0.95397924	          0.00000000	          0.04694136	          0.00000000	          0.00000000	          0.00000000	          0.00000000	          0.00000000	          0.00000000	          0.00000000	         -0.98008487	          0.00000000	          0.00000000	          0.00000000	          0.00000000	
          0.08400000	       -106.81946133	        495.40100426	         11.59447819	         -0.95150339	          0.00000000	          0.04838897	          0.00000000	          0.00000000	          0.00000000	          0.00000000	          0.00000000	          0.00000000	          0.00000000	         -1.07027896	          0.00000000	          0.00000000	          0.00000000	          0.00000000	
          0.08800000	       -108.85271227	        515.23529939	          3.29413592	         -0.94932835	          0.00000000	          0.04992830	          0.00000000	          0.00000000	          0.00000000	          0.00000000	          0.00000000	          0.00000000	          0.00000000	         -1.22741362	          0.00000000	          0.00000000	          0.00000000	          0.00000000	
          0.09200000	       -108.41508089	        540.90540424	         -4.88382624	         -0.94738016	          0.00000000	          0.05138674	          0.00000000	          0.00000000	          0.00000000	          0.00000000	          0.00000000	          0.00000000	          0.00000000	         -1.45537821	          0.00000000	          0.00000000	          0.00000000	          0.00000000	
          0.09600000	       -107.51062384	        572.12288792	        -12.28587988	         -0.94520392	          0.00000000	          0.05272110	          0.00000000	          0.00000000	          0.00000000	          0.00000000	          0.00000000	          0.00000000	          0.00000000	         -1.73636719	          0.00000000	          0.00000000	          0.00000000	          0.00000000	
